<?xml version="1.0" encoding="utf-8"?>
<!-- Generator: Adobe Illustrator 19.0.0, SVG Export Plug-In . SVG Version: 6.00 Build 0)  -->
<svg version="1.1" id="Layer_1" xmlns="http://www.w3.org/2000/svg" xmlns:xlink="http://www.w3.org/1999/xlink" x="0px" y="0px"
	 viewBox="1957 676.1 653.1 408.9" style="enable-background:new 1957 676.1 653.1 408.9;" xml:space="preserve">
<style type="text/css">
	.st0{fill:none;stroke:#EBEBEB;stroke-width:1;stroke-miterlimit:10;}
	.st1{fill:none;stroke:#EBEBEB;stroke-width:0.5;stroke-miterlimit:10;}
</style>
<path vector-effect="non-scaling-stroke" class="st0" d="M2608.6-178.9c-50.4,1.3-96.6-28.2-117.2-42.4
	c-20.6-14.2-46.2-6.5-65.5-11.6c-59.1-15.4-34.2-53.3-59.1-59.1c-16.7-3.9-12.8,7.7-24.4,15.4c-11.6,7.7-20.5,5.1-27,12.8
	s6.4,68-5.1,92.4s9,21.8-19.3,69.3c-28.2,47.5-16.7,56.5-20.5,77c-3.9,20.5-10.3,33.4-11.6,53.9c-1.3,20.5,2.6,46.2-30.8,88.6
	s-52.6,48.8-66.8,74.5c-14.1,25.7,2.6,42.4-7.7,61.6c-10.3,19.3,1.3,52.6-7.7,74.5c-9,21.8-23.1,52.6-29.5,73.2
	c-6.4,20.5-11.6,57.8-19.3,77c-7.7,19.3-16.7,21.8-39.8,21.8c-23.1,0-44.9-32.1-42.4-79.6c2.6-47.5-2.6-127.1-18-150.2
	s-24.4-61.6-77-74.5c-52.6-12.8-92.4-41.1-100.1-60.3c-7.7-19.3-52.6-23.1-71.9-39.8s-34.7-38.5-62.9-42.4s-48.8-37.2-71.9-34.7
	S1599,57,1582.3,67.3c-16.7,10.3-88.6,57.8-78.3,113s7.7,60.3-33.4,82.2c-41.1,21.8-11.6,27-42.4,35.9c-30.8,9-55.2,20.5-83.4,23.1
	s-25.7,3.9-39.8,18c-14.1,14.1-19.3,20.5-34.7,11.6c-15.4-9-33.4-11.6-39.8-27s-11.6-34.7-34.7-44.9c-23.1-10.3-21.8-33.4-37.2-44.9
	c-15.4-11.6-37.2-9-47.5-27s-18-100.9-44.9-103.7c-27-2.8-14.1-10.5-42.4-15.7c-28.2-5.1-27,6.4-46.2,6.4s-29.5-7.2-47.5,9.2
	s-33.4,44.7-47.5,56.2s-7.7,41.1-14.1,59.1c-6.4,18-7.7,30.8-32.1,38.5c-24.4,7.7-35.9,34.7-46.2,57.8s-46.1,41.3-42.2,75.4
	s27,30.2,25.7,72.5s0,42.4-20.5,68s-1.3,70.6-18,100.1c-16.7,29.6-66.8,38.6-56.5,78.4s32.1,53.9,35.9,80.9
	c3.9,27,19.3,89.9,24.4,132.2s46.2,89.9,59.1,102.7c12.9,12.8,12.8,21.2,7.7,39.8c-5.1,18.6,15.4,32.1,15.4,32.1"/>
<path vector-effect="non-scaling-stroke" class="st0" d="M2608.6-82.6c-13.2-18-14.4-33.4-41.4-32.1s-14.1,15.4-34.7,7.7
	c-20.6-7.7-23.1-25.7-42.4-20.5c-19.3,5.2,12.8,24.4,0,35.9c-12.8,11.6-23.1,23.1-19.3,35.9c3.9,12.8-7.7,10.3-27,7.7
	c-19.3-2.6-27,7.7-23.1,20.5s23.1,51.4-7.7,79.6c-30.8,28.2-61.6,75.7-64.2,116.8c-2.6,41.1-14.1,70.6-48.8,79.6
	c-34.7,9-42.4,20.5-53.9,64.2s-68,154.1-66.8,183.6c1.2,29.5-6.4,68-25.7,75.7c-19.3,7.7-41.1,28.2-44.9,52.6
	c-3.9,24.4-7.7,38.5-35.9,41.1c-28.2,2.6-59.1,14.1-48.8-29.5s-5.1-48.8-34.7-70.6c-29.5-21.8-50.1-25.7-41.1-86
	s-23.1-43.1-14.1-77.4s16.7-88.2-14.1-95.9s-74.5-29.5-102.7-59.1c-28.2-29.5-80.9-69.3-118.1-50.1c-37.2,19.3-71.9,42.2-65.5,73.1
	s9,41.2-14.1,39.9s-60.3,20.5-82.2,48.8c-21.8,28.2-9,62.9-23.1,86s-42.4,75.7-62.9,69.3c-20.5-6.4-18-34.7-34.7-42.4
	s-37.2-25.7-60.3-25.7c-23.1,0-34.7,30.8-62.9,37.2c-28.2,6.4-32.1-20.5-64.2-21.8s-41.1,5.1-60.3-23.1
	c-19.3-28.2-1.3-51.4-25.7-61.6s-28.2-20.5-29.5-32.1s-15.4-11.6-25.7-29.5c-10.3-17.9-24.4-38.5-34.7-38.5
	c-10.3,0-15.4,11.6-20.5,2.6s1.3-18,0-27c-1.3-9-12.8-34.7-32.1-37.2s-20.5,16.7-28.2,38.5s-23.1,57.8-59.1,70.6
	s-51.4,16.7-51.4,33.4s52.6,34.7,55.2,68c2.6,33.3,35.9,57.8,30.8,80.9C943,529.6,917.3,545,916,563s15.8,35.6,10.3,52.6
	c-15.4,47.5-57.8,80.9-56.5,102.7s27,19.3,34.7,29.5s-10.3,37.2-1.3,56.5s27,65.5,64.2,75.7s57.8,16.7,50.1,61.6s6.4,74.5,25.7,89.9
	c19.3,15.4,32.1,29.5,30.8,52"/>
<path vector-effect="non-scaling-stroke" class="st0" d="M1244.8,1083.7c0-21.2-37.2-21.2-41.1-48.1c-3.9-27-14.1-66.8-27-98.9
	c-12.9-32.1-33.4-52.6-64.2-66.8s-21.8-51.4-12.8-79.6s-25.7-20.5-23.1-73.2c2.6-52.6,4.9-61.6-0.1-84.7s19.4-6.4,19.4-44.9
	s-19.3-65.5,2.6-73.2c21.9-7.7,18,41.1,32.1,53.9s21.8,19.3,15.4,52.6s16.7,35.9,27,42.4c10.3,6.4,32.1,25.7,34.7,46.2
	s23.1,7.7,29.5,32.1c6.4,24.4,0,44.9,16.7,44.9s33.4-11.6,29.5-28.2c-3.9-16.7-23.1-44.9-6.4-51.4c16.7-6.4,11.6,9,24.4,5.1
	s60.3-78.3,74.5-75.7c14.1,2.6-29.5,255.5,27,255.5c0,0,25.7,3.9,6.4-84.7c-5.1-25.7,6.4-14.1,15.4-47.5s0-34.7,16.7-35.9
	c16.7-1.3,21.8,46.2,38.5,46.2s57.8-33.4,62.9-59.1c5.1-25.7,5.1-30.8,19.3-42.4c14.1-11.6,18-34.7,9-57.8s-43.7-51.4,12.8-86
	c56.5-34.7,61.6-48.8,75.7-59.1c14.1-10.3,30.8-25.7,43.7-50.1c12.8-24.4,4.2-30.8,32.3-37.2c28.1-6.4,40.9-52.6,56.3-52.6
	s25.7,30.8,18,56.5s38.5,6.9,46.2,20.2c7.7,13.2-12.8,46.6-16.7,59.4s-21.8,3.6-24.4,15.9s62.9,52.1,52.6,91.9s61.6,44.9,73.2,60.3
	c11.6,15.4-5.1,71.9-14.1,88.6s27,29.5,51.4,32.1s107.8,24.4,123.2,25.7s27-11.6,38.5-10.3c11.6,1.3,32.1,24.4,47.5,18
	s12.8-21.8,14.1-39.8c1.3-18,48.8-92.4,77-101.4c28.2-9,69.3-5.1,80.9-32.1c11.6-27,48.8-160.5,101.4-172
	c52.6-11.6,68-20.5,69.3-60.3c1.3-39.8-37.2-18-37.2-44.9c0-27,110.4-42.4,110.4-100.1s5.5-102.7-24.4-150.2
	c-22.7-36.1,9.6-52.6,29.8-41.1"/>
<path vector-effect="non-scaling-stroke" class="st0" d="M1338.6,1083.7c0,0,0-27.6-18-37.9s-44.9-32.1-41.1-51.4
	c3.9-19.3,10.3-28.2,5.1-47.5s-18.7-60.3-5.5-64.2s14.9,59.1,26.9,71.9s51.8,33.4,60.8,59.1c9,25.7,29.5,43.7,39.8,51.4
	s50.1,6.4,59.1,18.6"/>
<path vector-effect="non-scaling-stroke" class="st0" d="M1676.2,1083.7c0,0,2.6-45.6,0-57.1c-2.6-11.5-12.8-16.7,0-33.4
	s7.9-7.7-6.3-25.7s-34.8-14.1-42.5-27c-7.7-12.8-24.4-30.8-38.5-28.2s-35.9-6.4-27-20.5c9-14.1,56.7,2.2,81-9.2s53.8-57.6,48.7-79.4
	c-5.1-21.8-18-35.9-9-44.9s-14.1-33.4,1.3-44.9c15.4-11.6,35.9,7.7,44.9,0s-3.9-38.5,12.8-48.8s28.2-19.3,32.1-23.1
	c3.9-3.9-16.7-29.5,0-32.1s33.4,20.5,24.4,37.2s-16.7,48.8-15.4,61.6s-14.1,28.2-28.2,44.9s-7.7,50.1-5.1,78.3s-23.1,37.2-19.3,59.1
	s48.8,34.7,55.2,57.8c6.4,23.1-5.1,66.8,34.7,65.5s69.3-32.1,78.3-10.3s-21.8,12.8-35.9,39.8s-48.8,32.1-51.4,40.4"/>
<path vector-effect="non-scaling-stroke" class="st0" d="M2401.6,1083.7c0,0-7.7-30.2,0-54.6c7.7-24.4-30.8-7.2-24.4-46
	c6.4-38.8,11.4-54.2-0.7-73.4c-12.1-19.3,11-5.5,20-27.1s-16.7-48.6,12.8-48.6s42.4,73.2,60.3,71.9c18-1.3,7.7-19.3,28.2-37.2
	c20.5-18,33.4-29.5,28.2-59.1c-5.2-29.6-28.9-91.2,82.5-119.4"/>
<path class="st1" d="M2522.3,1006.1c-11,8-12.8,24.4,0,33.4c12.8,9,21.8,21.8,32.1,16.7c10.3-5.1,18-23.1,6.4-34.7
	C2549.2,1009.9,2536.4,995.8,2522.3,1006.1z"/>
<path vector-effect="non-scaling-stroke" class="st1" d="M840.4,1083.7c-11.6-9.6-18-32.7-21.8-45.6c-3.9-12.8-27.6-50-43.7-73.2
	c-23.1-33.4-24.6-87.6-37.2-139.9c-9-37.2-10.3-62.9-21.8-82.2c-11.6-19.3-25.9-11.6-24.4-42.4c1.5-30.8,34.7-25.7,44.9-38.5
	s16.7-48.8,19.3-75.7c2.6-27-1.3-35.9,20.5-53.9s12.8-48.8,10.3-71.9s-5.1-41.1-12.8-52.6c-7.7-11.6-15.5-11.6-7.8-29.5
	s13.2-28.2,24.8-38.8c11.6-10.6,10.6-27.9,18.3-37.6c7.7-9.6,9.6-22.1,26-27.9s43.3-16.4,45.3-32.7c1.9-16.4-1.9-23.1,0-35.6
	c1.9-12.5,1.9-27.9,13.5-36.6c11.6-8.7,15.4-17.3,22.1-27.9c6.7-10.6,14.4-27,27.9-32.7c13.5-5.8,40.4-3.9,52-7.7
	c11.6-3.8,36.6-2.9,46.2,7.7s23.1,4.8,27.9,10.6c4.8,5.8,14.4,12.5,17.3,40.4s7.7,53.9,30.8,65.5c23.1,11.6,27,0,41.4,26
	s34.1,34,48.1,43.3s3.9,27.9,20.2,44.3c16.3,16.4,35.6,27.9,50.1,27s26-9.6,35.6-18.3c9.6-8.7,16.4-16.4,33.7-15.4
	s50.1,16.4,70.3,6.7c20.2-9.6,10.6-21.2,25-30.8c14.4-9.6,12.5-15.4,34.7-27.9c22.1-12.5,29.8-19.3,38.5-27s8.7-29.8,7.7-40.4
	s-3-34.7,0.4-48.1c3.4-13.5,4.4-28.9,19.8-41.4s44.3-24.1,53.9-33.7s0-31.8,9.6-41.4s6.7-18.8,25-9.4s27,22.9,42.4,26.8
	c15.4,3.9,19.3-1,42.4,18.3s58.7,39.5,74.1,43.3s14.4,14.4,41.4,35.6s68.4,38.5,88.6,45.3c20.2,6.7,39.5,35.6,49.1,46.2
	c9.6,10.6,27,22.1,25,37.6s9,61.6,0.1,87.6c-8.8,26,3.7,90.6,11.4,98.7c7.7,8.2,22.1,31.3,51,31.3s44.3-3.9,56.8-59.7
	s25-86.7,38.5-108.8s1.9-63.6,7.7-74.1c5.8-10.6,11.6-21.2,10.6-35.6s-6.7-19.3,6.7-38.5c13.5-19.3,53-41.4,70.3-75.1
	c17.3-33.7,25-44.3,24.1-73.2s-2.9-38.5,5.8-52c8.7-13.5,2.9-46.2,17.3-68.4c14.4-22.2,16.4-29.8,27.9-45.3s-1-14.4,0-38.5
	s-0.7-14.4,4.9-34.7c5.6-20.3,24-23.1,28.8-33.7c4.8-10.6-18.3-12.5-13.5-22.1c4.8-9.6,2.3-27,14.1-17.3c11.8,9.7,30.1,26,32.1,36.6
	s16.4,13.5,29.8,21.2s40.4-4.8,56.8,4.8c16.4,9.6,49.1,20.2,60.7,28.9c11.6,8.7,11.6,2.9,37.6,4.8s33.7,2.9,33.7,2.9"/>
<path vector-effect="non-scaling-stroke" class="st1" d="M867.7,1083.7c-8.7-18.3-20.2-27-24.1-47.2c-3.9-20.2-27.9-52-35.6-62.6
	s-22.1-17.3-28.9-40.4c-6.7-23.1-15.4-49.1-11.6-71.3c3.9-22.1-1-46.2-5.8-71.3s-30.7-48-31.7-68.3s-4.8-16.4,16.4-48.1
	c21.2-31.8,29.8-53.9,31.8-71.3s-7.7-25.8,1-42.3s29.8-30,35.6-52.1c5.8-22.1-18.2-53.9-16.3-71.3c1.9-17.3-2-40.4-5.8-52
	c-3.9-11.6-15.4-16.4-4.8-27c10.6-10.6,23.1-26,30.8-31.8s9.6-12.5,11.6-25c1.9-12.5,5.8-19.3,14.4-21.2c8.7-1.9,45.3-17.3,53.9-25
	c8.7-7.7,8.7-28.9,0-37.6c-8.7-8.7,7.2-26,6.5-32.7s10.8-26,17.6-31.8c6.7-5.8,20.2-25,31.8-29.8c11.6-4.8,40.4-19.3,61.6-12.5
	c21.2,6.7,44.3,15.4,52,31.8s0.7,57.3,29.8,82.8c15.4,13.5,37.6,2.9,49.1,23.1c11.6,20.2,30.8,38.5,44.3,49.1s15.4,27,22.1,43.3
	c6.7,16.4,40.4,32.7,67.4,32.7s36.6-30.3,55.8-30.8c69.9-1.9,33.7,34.7,75.1,34.7c28.9,0,34.7-34.7,40.4-49.1s12.5-21.2,23.1-28.9
	s56.8-19.3,64.5-34.7s14.4-42.4,11.6-60.7c-2.9-18.3-2.5-30.8,0.7-41.4s-1-11.6,7.8-24.1s19.4-23.7,34.8-29.7
	c15.4-5.9,27-21.3,27-33.9c0-12.5,0-14.4,9.6-14.4s35.6,17.3,48.1,19.3c12.5,1.9,37.6,7.7,44.3,24.1s66.4,26,74.1,35.6
	c7.7,9.6,35.6,34.7,54.9,45.3s42.4,20.2,64.5,33.7s45.3,33.7,53,45.3s22.1,11.6,19.3,40.4s0,47.2-3.9,63.6s0.8,31.8,4.2,62.6
	c3.5,30.8,9.3,84.7,75.4,84.7c29.5,0,59.1-25,61.6-53.9c2.6-28.9,3.9-61,13.5-79s23.8-32.1,28.2-41.1c4.5-9,12.2-32.1,9.6-53.3
	c-2.6-21.2-7.3-20.5,0.5-30.8c7.8-10.3,3.3-18.6,5.3-33.4c1.9-14.8,1.9-28.9,32.1-45.6s55.8-71.3,57.8-86.7s10.3-44.5,16-53.7
	c5.8-9.2,10.3-43.2,9-55.4c-1.3-12.2-5.1-39.2,3.9-55.2s34.7-57.8,37.9-64.8c3.2-7.1,5.8-12.8,3.2-28.9c-2.6-16-9.6-31.5,4.5-30.2
	s11.6-4.5,14.8-12.8c3.2-8.3,19.9-13.5,33.4-2.6s37.9,14.1,59.1,16.7c21.2,2.6,45.6,10.3,57.8,20.5c12.2,10.3,56.5,13.5,79,12.8
	s16.4,2.6,16.4,2.6"/>
<path vector-effect="non-scaling-stroke" class="st1" d="M2609.4-144.9c0,0-5.6-4.8-42.2-5.8c-36.6-1-63.6-6.7-72.2-16.4
	c-8.7-9.6-27-9.6-44.3-12.5c-17.3-2.9-39.5-20.2-53,0s5.8,18.3,0,30.8c-5.8,12.5-30.8,27-48.1,54.9c-17.3,27.9-31.8,52-27.9,82.8
	c3.9,30.8-7.5,56.7-19.3,83.8c-18.3,42.4,6.7,100.1-8.7,118.4s-57.8,0-71.3,17.3s-1.9,46.2-15.4,67.4c-13.5,21.2-19.3,51-22.1,70.3
	c-2.9,19.3-10.6,35.6-15.4,51s9.6,43.3-7.7,68.4c-17.3,25.1-27.9,31.8-32.7,42.4c-4.8,10.6,1,40.4-12.5,48.1s-24-24.8-44.3-24.1
	c-27.9,1-55.8-1-67.4-15.4c-11.6-14.4-23.1-71.3-26-99.2s0-58.7,0-58.7c1-22.1,5.8-63.6-9.6-76.1s-25-13.5-36.6-29.8
	s-12.5-20.2-32.7-27.9s-72.2-34.7-92.4-57.8s-72.2-36.6-83.8-42.4c-11.6-5.8-19.3-27.9-45.3-27.9s-23.1-11.6-40.4,1.9
	s-27,21.2-38.5,27.9c-11.6,6.7-29.8,33.9-26,57.4c3.9,23.5-1.9,81.3-23.1,96.7s-58.7,19.3-74.1,49.1c-15.4,29.8-13.5,43.3-19.3,60.7
	s1,28.9-21.2,27.9s-17.3-18.3-56.8-27.9s-9.6-22.1-40.4-17.3c-30.8,4.8-22.1,20.2-49.1,24.1s-56.8,2.9-85.7-40.4
	c-28.9-43.3-11.6-38.5-46.2-55.8c-34.7-17.3-11.6-34.7-43.3-42.4c-31.7-7.7-60.7-44.3-58.7-63.6c1.9-19.3,16.3-67.1-36.6-63.6
	c-28.9,1.9-21.2-12.5-48.1,1c-27,13.5-21.2,29.8-36.6,37.6c-15.4,7.8-24.1,16.4-17.3,38.5c6.7,22.1,27.2,26-2.3,51
	S880.5,296.1,867,298s-32,33.7-41.7,49.1s-21.2,15.4-17.3,33.7s50.1,76.1,43.3,111.7c-6.7,35.6-16.4,50.1-34.7,77
	c-18.3,27,2.3,49.1-9.4,66.4c-11.8,17.3-38.7,34.7-35.8,73.2s31.8,84.7,32.7,128.1c1,43.3,20.2,32.7,33.7,96.3
	s32.7,132.9,71.3,150.2"/>
<path vector-effect="non-scaling-stroke" class="st1" d="M969.8,1083.7c-18.3-38.5-17.2-83-39.5-106.9
	c-38.5-41.4-34.7-108-60.7-137.7c-13.5-15.4-36.6-27.9-42.4-66.4c-5.8-38.5-28.9-36.6-20.2-63.6s23.1-30.8,37.6-46.2
	s14.1-15.4,17.7-27c3.5-11.6,18-14.4,8.3-37.6c-9.6-23.1-21.2-11.6-16.4-30.8c4.8-19.3,50.1-43.3,42.4-69.3
	c-7.7-26-23.4-70.3-34.3-85.7c-10.9-15.4-21.5-21.2-29.2-43.3s21.2-51,36.6-56.8c15.4-5.8,37.6-10.6,53.9-35.6s14.4-34.7,19.3-39.5
	c4.8-4.8-7.7-29.8-4.8-38.5s11.6-4.8,24.1-19.3c12.5-14.4,12.5-27.9,32.7-28.9s33.7-7.7,39.5,8.7c5.8,16.4,6.7,23.1,6.7,37.6
	s14.4,37.6,25,45.3s23.1,19.3,42.4,27.9s13.5,22.1,25,29.8s27,10.6,38.5,24.1c11.6,13.5,23.1,36.6,28.9,50.1s26,25.1,38.5,32.3
	s53,7.3,73.2,0s30.8-4.3,44.3,0s21.2-9.1,33.7,0s27,37,44.3,36.1s18.3-20.2,26-27.9s9.6-15.4,11.6-28.9c1.9-13.5,6.7-44.3,26-56.8
	s42.4-14.4,67.4-48.1s24.1-44.3,27.9-71.3c3.9-27,12.5-37.6,27.9-49.1s10.5-21.2,28.3-30.8c17.9-9.6,29-19.3,40.3-11.6
	s27,15.4,45.1,25s40.3,17.3,50.9,30.8s15.4,32.7,33.7,38.5s47.2,9.6,59.7,17.3s32.7,22.1,41.4,28.9c8.7,6.7,14.4,9.6,29.8,23.1
	s19.9,18.9,18.6,42s3.9,53.7,4.5,82.7s10.9,121.5,32.7,126.6s51.4,12.8,57.8,23.8c6.4,10.9-5.8,38.6,4.5,42.7
	c10.3,4.1,21.8-17.1,30.8-22.8c9-5.8,23.8-9.4,27-15.6c3.2-6.2,5.8-18.4,7.7-24.2s-2.6-9.6,5.1-20.5c7.7-10.9,14.1-23.8,19.9-28.2
	c5.8-4.5,19.9-35.3,18-45.6s-3.2-37.2,4.5-47.5c7.7-10.3,21.2-47.5,22.5-65.5c1.3-18,15.6-34.9,19.9-42.4
	c14.8-25.7,1.3-52,14.8-63.6s49.4,4.5,61-8.3s7.7-34.7,7.7-79.6s43-106.6,44.9-109.8s9-12.8,7.7-37.2c-1.3-24.4,1.3-43,9.6-56.5
	c8.3-13.5,28.9-38.5,43-46.9s27.6-13.5,23.1-33.4s3.9-30.2,25-21.8c21.2,8.3,13.5,15.4,30.2,19.3c16.7,3.9,19.9-1.3,36.6,5.8
	s32.1,7.7,41.7,6.4s38.8,10,38.8,10"/>
<path vector-effect="non-scaling-stroke" class="st1" d="M2608.6-111.2c-12-11.6-6.7-13.4-43.3-17.3c-36.6-3.9-36.6,1.4-48.6-6.3
	s-24.1-6.3-32.7-6.3c-8.7,0-8.2-18.8-23.6-12c-15.4,6.7-4.3,17.8-10.6,28.9c-6.3,11.1-33.7,29.4-45.7,40.9s-26,29.8-26,57.3
	s-1,43.7-13,64.2s-22.1,32.5-33.7,69.6c-11.6,37.1-5.8,68.8-8.7,87.6s-8.2,33.7-28.9,37.1c-20.7,3.4-28.1-14.4-44.8,0
	c-16.6,14.4,5.8,16.9-7.2,40s-23.1,43.3-26.5,60.7c-3.4,17.3-6.7,47.7-17.8,61.1c-11.1,13.5-10.6,10.1-13.5,25.5s-1.4,24.5-4.3,35.6
	s-8.2,29.9-17.8,47.7c-9.6,17.8-13.5,15.4-17.8,33.2c-4.3,17.8-7,27.7-24.6,37.1c-34.8,18.7-21.6,60.9-53.4,63.1
	c-14,1-20.7-21.7-17.8-45.3c2.9-23.6,1-31.8-5.3-33.7c-6.3-1.9-23.1-13-35.1-14.9s-23.1-19.3-27.9-43.8
	c-4.8-24.6-9.1-51.5-13.5-81.8c-4.3-30.3-1-65-2.4-78s5.3-41.4-17.3-52c-22.6-10.6-17.3-16.4-24.6-18.8c-7.2-2.4-19.3,4.8-39-5.3
	c-19.7-10.1-14-24.6-30.3-31.8s-28.4-5.3-44.8-16.4s-14.4-32.3-36.6-42.8c-22.1-10.6-45.3-19.3-61.1-27
	c-15.9-7.7-16.4-14.4-34.7-6.7c-18.3,7.7-14.4,29.8-38.5,45.7s-26,28.9-27.4,57.1s-14.4,43.6-28.9,53.2
	c-14.4,9.6-56.3,31.3-63.6,40.9c-7.3,9.6-24.2,23.6-26.6,36.6s1,61.6-25,78s-41.4,3.8-52-2.4c-10.6-6.2-18.8-27.4-28.9-28.4
	s-39.5-6.7-61.1,3.9c-21.7,10.6-75.1,12-94.4-1s-38.5-18.3-43.8-44.3s-7.7-43.3-24.1-53c-16.4-9.6-34.7-9.1-43.8-27.9
	c-9.1-18.8-29.4-26-50.1-38.5c-20.7-12.5-33.2-38.5-36.1-57.3s-10.1-31.3-18.8-32.7s-27.4,10.6-27.9,16.9s-17.3,16.9-25,20.2
	s3.9,12,0,22.6s-16.9,51.5-30.8,63.6c-14,12-43.8,19.3-49.1,24.6c-5.3,5.3-15.9,10.6-22.1,18.3s-22.1,15.9-19.3,27.4
	c2.9,11.6,8.7,26.5,27.4,38c18.8,11.6,34.2,37.1,37.6,63.1c3.4,26,31.8,32.7,15.9,53.9c-15.9,21.2-37.1,26.2-38,44.4
	c-1,18.2,38.5,22,30.8,42.7s-29.4,53.4-38,58.3c-8.7,4.8-1,26.5-15.9,34.7s-28.4,8.7-31.8,16.4c-3.4,7.7,15.4,22.6,15.4,35.6
	s14,45.7,32.7,64c18.8,18.3,32.7,38,32.7,51c0,40,37.6,39.5,50.1,44.3s30.3,4.3,27,40.4c-3.4,36.1,11.4,61.5,23.1,77.5
	c25.5,34.7,4.3,48.1,1.9,57.8"/>
<path vector-effect="non-scaling-stroke" class="st1" d="M1094,1083.7c0-16.4,2.9-31.8-13.5-44.3s-30.8-20.2-38.5-49.1
	s-1.9-74.1-17.3-93.4c-15.4-19.3-29.8-26-45.3-30.8s-57.8-40.4-53.9-65.5c3.9-25,13.5-47.2-4.8-61.6s-27-4.8-23.1-29.8
	s18.3-44.3,26-56.8s16.4-32.5,14.4-43.2c-1.9-10.7-12.5-42.3-7.7-48.2s34.7-24.2,35.6-51.1c1-27-15.4-37.6-18.3-54.4
	c-2.9-16.8-9.6-24.5-14.4-39c-4.8-14.4-45.3-40.4-47.2-57.8s25-25,48.1-28.9s27-12.5,27-20.2s13.5-27.9,19.3-35.6
	s6.7-35.6,17.3-37.6s19.3,4.8,19.3,19.3c0,14.5,8.7,34.7,13.5,37.6s19.3-6.7,31.8,10.6s31.8,36.6,27.9,49.1s1,21.2,17.3,24.1
	c16.4,2.9,32.7,15.4,37.6,35.6c4.8,20.2,16.4,54.9,34.7,56.8c18.3,1.9,45.3,4.8,56.8,13.5c11.6,8.7,21.2,23.1,41.4,19.3
	c20.2-3.9,47.2-10.5,59.7-24.5s23.1-19.8,45.3-7.2c22.1,12.5,42.4,32.7,48.1,51c5.8,18.3,20.2,16.4,27.9,15.4s28.9-21.2,32.7-29.8
	c3.9-8.7,24.1-33.7,32.7-42.4c8.7-8.7,23.1-13.3,23.1-31.7s-5.8-67.5,23.1-86.8s60.5-6.7,79.4-33.7c18.8-27-6.3-40.4,0-54.9
	c6.3-14.4,39.1-53.9,62.2-45.3c23.1,8.7,41.4,25,62.6,27.9s38.5,21.2,60.7,46.2c22.1,25,28.9,23.1,56.8,29.8s35.6,3.9,32.7,39.5
	s-18.3,64.7-8.7,77.1c9.6,12.4,26,5.7,19.3,39.4s-4.8,67.6,26,88.7s58.7,27.8,54.9,61.5c-3.9,33.7-13.5,57.8,8.7,61.6
	c22.1,3.9,41.4-6.7,58.7-4.8c17.3,1.9,49.1-14.7,47.2-31.9c-1.9-17.2-10.6-37.4,10.6-49.9c21.2-12.5,39.5-1,42.4-26
	s6.7-33.7,13.5-45.3c6.7-11.6,12.5-43.3,12.5-61.6s20.2-38.4,25-58.2c4.8-19.8,24.1-111.2,42.4-125.7s49.1-15.4,63.6-32.7
	c14.4-17.3,37.6-47.2,39.5-71.3s4.8-65.5,21.2-81.8c16.4-16.4,51-31.4,58.7-56.6c7.7-25.2-5.8-28.1,0-45.5
	c5.8-17.3,27.3-7.7,30.5-24.1c3.2-16.4,10.9-29.8,12.8-40.4c1.9-10.6,2.9-26,18.3-24.1c15.4,1.9,44.3,8.7,52,17.3
	c7.7,8.7,27.9,4.8,28.9,18.3s6.5,23.1,6.5,23.1"/>
<path vector-effect="non-scaling-stroke" class="st1" d="M1110,1083.7c5.1-11.6,10.9-32.1,3.2-37.2c-7.7-5.1-35.6-22.5-37.4-29.5
	c-1.8-7.1-17.2-18.6-18.4-28.2c-1.3-9.6,0.6-42.4,0-63.6s-21.8-49.4-37.9-61.6c-16-12.2-50.1-13.5-54.6-31.5s-24.4-17.3-16-42.4
	c8.3-25,14.1-28.2,10.9-37.2c-3.2-9-36.6-17.3-41.1-29.5s-5.1-31.5,3.9-41.1s22.5-30.2,32.1-37.2c9.6-7.1,7.7-18.6-0.6-36.6
	s-17.3-33.4-6.4-43s32.1-23.8,32.1-46.2c0-22.5-7.7-50.7-13.5-59.7s-13.5-34-18-45.6s-32.1-21.8-39.2-44.9
	c-7.1-23.1,0.6-31.5,13.5-32.1s28.2,9,37.9,6.4c9.6-2.6,16-9.6,12.8-21.8c-3.2-12.2-1.3-18.6,6.4-24.4s11.6-15.4,14.8-19.3
	s17.1-3.9,17.2,5.1s6.5,23.8,16.2,22.5c9.6-1.3,19.9,0,18,11.6s1.3,11.6,10.3,18.6c9,7.1,5.4,29.5,19.7,44.3
	c14.3,14.8,30.1,5.8,41.1,18s31.6,42.4,37.3,61c5.8,18.6,19.3,23.1,39.8,27s32.7-0.6,47.5,21.2c14.8,21.8,24.4,14.8,27,34.7
	s8.3,35.3,19.9,35.3s13.5-38.5,18-47.5s4.5-16,15.4-19.9c10.9-3.9,22.5-12.2,21.2-19.3s7.1-11.2,13.5-12.3c6.4-1.2,23.1-0.5,27,3.3
	c3.9,3.9,26.3,14.8,29.5,24.4s16.7,38.5,32.1,41.1s40.4-7.1,50.1-28.2c9.6-21.2,25.7-32.1,32.1-36.6s39.2-30.2,47.5-43
	s1.9-25.7,3.9-41.7c1.9-16-5.1-38.5,27-42.4s51.4-13.5,61-25c9.6-11.6,15.4-29.5,12.2-45.6c-3.2-16-0.7-25.7,11.5-28.2
	c12.2-2.6,31-0.6,39.6-7.1c8.6-6.4,27.2-10.9,47.1,0s37.9,30.2,48.1,51.4s33.4,27,42.4,28.2c9,1.3,44.3,1.3,44.3,23.1
	s1.9,55.8-8.3,76.4s5.4,35.9,8.5,45.6s14.8,39.8,16.5,61.6c2.6,31.5,67.5,51.9,73.2,66.8c5.1,13.5,6.4,29.5,2.6,52.6
	c-3.9,23.1-9.6,43,2.2,47.5c11.9,4.5,17.7,1.3,32.4-4.5c14.7-5.8,26.3-7.7,39.2-5.1c12.8,2.6,21.2,0.6,30.2-6.4
	c9-7.1,19.9-18.6,30.2-19.3c10.3-0.7,6.4-14.8,5.8-19.3c-0.6-4.5-5.6-28.7-1.3-38.1c9.6-21,52,5.3,55.2-3c3.2-8.3-1.9-23.8-3.9-34
	s9-27,18.6-31.5s25-12.2,19.9-39.2c-5.1-27-5.8-32.7,6.4-65.5c12.2-32.7,18.6-51.4,19.9-70s15.4-57.8,28.9-70.6s39.8-14.1,47.5-19.9
	c7.7-5.8,14.1-23.1,32.7-38.5c18.6-15.4,11.6-21.2,18.6-33.4c7.1-12.2,13.5-21.8,23.1-25.7s21.2-7.1,19.3-36.6s13.5-51.4,25.7-66.1
	c12.2-14.8,23.8-34,26.3-46.2c2.6-12.2,7.7-26.3,12.8-34.7c5.1-8.3,14.1-25,18-41.1c3.9-16,1.9-33.4,16-34.7s28.9,4.5,50.7,29.5
	c21.8,25,29.8,21.2,29.8,21.2"/>
<path vector-effect="non-scaling-stroke" class="st1" d="M1132.5,1083.7c5.8-14.1,10.3-46.9-5.1-52s-34.7-18-38.5-41.1
	c-3.9-23.1-9-85.1-28.2-108c-19.3-22.9-70.6-52.5-69.3-71.1s27-53.3-7.1-73.8c-34-20.5-48.8-23.1-41.1-39.8s13.5-35.3,37.2-30.8
	c23.8,4.5,21.2-11.6,10.9-28.2c-10.3-16.7-43.7-46.9-37.9-59.1c5.8-12.2,50.7-28.9,53.3-58.4c2.6-29.5-14.8-39.8-14.8-56.8
	s-5.8-44.2-20.5-58.2c-14.8-14-40.4-26.8-27-37.1c13.5-10.3,28.2-1.3,37.9-10.3c9.6-9,9.6-55.2,17.3-52s22.5,13.5,28.2,30.8
	c5.8,17.3,17.3,16,24.4,21.8s12.8,23.1,11.6,34c-1.2,10.9,21.8,4.9,33.4,12.7s7.1,23.9,18.6,32.2c11.6,8.3,23.8,16,35.3,34
	s42.4,31.5,55.2,37.2s47.5,25,46.9,48.1s8.3,44.5,17.3,51.2c9,6.6,18,22,27,20.7s10.9-15.4,6.4-26.3c-4.5-10.9-6.2-19.3,2.3-26.3
	c8.6-7.1,11.8-10.9,14.4-29.5s0-17.3,9.6-21.2s23.8-13,29.5-25.4c5.8-12.4,17.3-5.5,27,0c9.6,5.5,36.6,36.4,34.7,46.6
	s13.5,25,27.6,30.2c14.1,5.1,25,14.1,31.5,9.6c6.4-4.5,5.1-9,7.7-21.8s9-39.8,33.4-49.4c24.4-9.6,28.2-9.5,30.8-22.4
	c2.6-12.9,22.5-39.9,34-46.6c11.6-6.7,19.3-12.5,18.6-24.1c-0.6-11.6-4.5-23.8,9-32.7c13.5-9,37.9-12.8,50.1-29.5
	s21.2-35.3,31.5-39.2c10.3-3.9,23.3-9.6,34.4-19.9c11.2-10.3,21.4-35.3,36.2-37.2c14.8-1.9,32.1,4.5,39.8,21.2
	c7.7,16.7,18,39.2,28.2,48.8c10.3,9.6,30.8,13.5,43,16s23.1,5.1,19.9,27c-3.2,21.8,5.1,32.1-3.2,49.4s-16.7,37.9-8.3,53.3
	s32.1,52,33.4,67.4s49.8,38.1,68.7,61.4c18.9,23.3,7.7,65.7,0,75.9c-7.7,10.3-10.3,27.6,14.1,29.5s26.3-1.9,44.3-0.6
	c18,1.3,43.7,21.2,61,12.2c17.3-9,12.8-36.6,22.5-40.4c9.6-3.9,21.8,30.8,35.3,25.7s34-34,13.5-41.7s-24.4-39.8-11.6-44.9
	c12.8-5.1,35.3,10.9,47.5,1.9c12.2-9-7.7-32.1,0-39.8c7.7-7.7,57.1-3.9,67.4-19.3s11.6-23.8,0-38.5c-11.6-14.8-14.8-25.3-8.3-51.5
	s9-39.7,7.1-66s14.8-60.3,24.4-73.2c9.6-12.8,26.3-29.5,45.6-43.7c19.3-14.1,29.5-69.3,48.8-71.3c19.3-1.9,91.8,16,91.8-17.3
	s-41.7-75.1-32.1-98.9c9.6-23.8,19.9-48.8,32.1-61.6s23.7-23.1,23.7-43.7s0-31.5,3.9-37.9s6.4-27.6,14.8-29.5
	c8.4-1.9,12.2-7.1,40.4,21.2c28.2,28.2,35.7,21.2,35.7,21.2"/>
<path vector-effect="non-scaling-stroke" class="st1" d="M2609.4-6.3c-17.1-3.9-31.9-26.3-48.6-25.7c-16.7,0.6-23.8,1.3-26.3,25.7
	c-2.6,24.4-4.5,61-22.5,79s-32.1,37.2-20.5,67.4s47.5,68.7,14.1,93.1s-68,5.8-89.9,23.1c-21.8,17.3-34.7,44.3-27,75.1
	c7.7,30.8,23.8,46.9-32.7,85.4s-40.4,64.5-43,91.6s8.3,78.5-14.8,91.3s-32.1-0.4-46.9,9.4c-14.8,9.8-4.5,12.4-11.6,23.3
	c-7.1,10.9-27.6,13.5-35.9,22.5c-8.3,9-2.6,18.6-5.1,32.1c-2.6,13.5-15.4,30.2-29.5,34.7s-22.5-6.4-30.2-3.2
	c-7.7,3.2-21.2,23.8-43.7,19.9s-29.5-19.3-53.3-16c-23.8,3.2-64.8,9.6-66.8-14.1c-1.9-23.8,20.5-53.3,14.1-71.3s-3.2-22.5-30.2-37.2
	c-27-14.8-44.9-25.7-59.4-72.5c-14.5-46.9-29.2-32.8-26.6-62.6s15.4-32,12.8-58.2s7.7-42.2-5.1-44.2c-12.8-1.9-21,3-38.8-8.8
	c-17.7-11.8-42.8-71.5-55-72.1s-20.3,5.1-29.7,25.7c-9.4,20.5-33.5,30.2-50.7,38.5s-20.4,19.9-32.6,35.3s-16.7,41.1-41.1,55.2
	s-63.6,32.3-70,57.9c-6.4,25.6-23.8,32-30.8,38.4c-7.1,6.4-41.1,25.7-34,55.2s30.8,43.7-1,57.1c-31.8,13.5-20.2-19.3-44-29.5
	s-23.8-16-21.2-28.2s-21.2-24.4-28.9-37.9s-9.6-28.9-22.5-29.5s-18.6,1.9-23.1,20.5s-24.4,30.2-30.2,47.5
	c-5.8,17.3-6.4,44.9-18.6,52s-46.9-3.6-53.9-30.4c-7.1-26.8-9-55.7-27-64s-56.7-16.5-62.5-36.8c-5.8-20.4-57.1-49.3-70.6-61.1
	c-13.5-11.9,3.2-27.3-10.9-29.8s-34-8.3-34-19.9s0.6-25.7-14.8-31.5s-29.5-1.9-25,15.4s-15.4-1.3-14.8,14.8
	c0.6,16,11.6,21.8,16.7,30.8s14.1,32.1,12.2,43s34.7,23.1,26.3,50.7c-8.3,27.6-1.9,42.4-27,55.2s-12.8,17.6-7.7,33.2
	c5.1,15.6,1.4,32.3,4.5,44.5c9,35.3-28.2,23.8-35.9,38.5s16,15.4,21.8,30.2s15.4,44.9,14.1,64.2c-1.3,19.3,4.5,52.6,32.1,69.3
	s62.9,71.9,66.1,93.7s14.8,43.7,25,57.8c10.3,14.1,21.8,76.4,21.8,76.4"/>
<path vector-effect="non-scaling-stroke" class="st1" d="M1190.3,1083.7c-7.7-17.3-23.1-84.7-35.6-109.8s-52.7-89.5-78.8-113.6
	c-26.1-24.1-41.1-38-39.1-56.3c1.9-18.3-5.3-32.3-7.2-49.6c-1.9-17.3-16.9-38-6.7-48.1c10.1-10.1,19.3-11.1,19.7-33.2
	c0.5-22.1-11.6-58.3-4.3-71.3c7.2-13,16.4-7.2,21.7-22.1c5.3-14.9-1.4-55.4,4.3-67.4c5.8-12-24.6-48.2-26-65s-9.6-23.1,2.4-27.9
	s28.4,8.6,41.9,36.1s58.7,38.4,64.5,45.7c5.8,7.3-7.7,22.7,5.8,37.2c13.5,14.4,27.4,12.5,31.8,36.6c4.3,24.1,22.6-1.4,34.2,5.8
	s11.1,19.3,32.3,50.1s28.4,41.4,41.9,40.9s27.9-24.6,34.7-40c6.8-15.4,14.4-15.4,15.4-29.4s3.9-21.7,9.1-28.4s1-24.1,15.4-22.1
	c14.4,1.9,26.5-8.9,36.6,9.3s21.2,18.2,17.3,28.8s-12.5,26-4.8,34.2s17.8-4.8,29.8,14.9c13.5,22.1,12.9,79,33.7,79
	c16.4,0,33.2-21.7,40-33.7c6.7-12,14-22.6,21.7-32.3c7.7-9.6,14-37.8,1.9-42.7c-12-4.9-37.1-13.6-32.7-32.9
	c4.3-19.3,21.7-22.6,31.8-34.7s38.5-56.8,51.5-64s40.1-9.6,55.8-30.4c13.1-17.3,23.7-55.8,40.3-67.9c16.6-12,16.2-21.2,27-23.6
	s20.4-2.9,25.7-7.7c5.3-4.8,28.4-52.5,40-52.5s29.8,28.9,29.8,28.9s16.5,33.5,20.2,36.6c11.1,9.1,35.1,3.9,41.9,12.5
	c6.7,8.7,1.9,20.3,0,32.8s4.8,14.9-3.9,30.8c-8.7,15.9-19.7,38.5-10.6,50.1s25.5,12.5,33.2,44.8s15.9,53.9,37.6,63.1
	c21.7,9.1,49.1,24.1,46.7,43.8s-21.7,60.7-20.7,76.5s23.1,20.2,64,20.7s25-4.8,63.1,6.7c38,11.6,45.3-9.1,57.8-8.7
	s28.9,2.9,39.5-5.3s17.8-24.6,24.1-32.3c6.3-7.7-1.9-25,3.9-29.8s7.7-8.7,27.4-18.3c19.7-9.6,10.1-25,22.6-28.4s28.4-1.4,47.7-13
	c19.3-11.6,22.1-53.4,21.7-78.5c-0.5-25,3.4-65,32.7-81.4c29.4-16.4,39.5-29.8,46.7-48.1c7.2-18.3,4.1-80.8,17.3-97.3
	c27.4-34.2,61.2-21.4,88.6-46.2c20.7-18.8,30.8-53,27.9-85.7c-2.9-32.7-32.6-45.8-16.9-65.5c15.4-19.3,19.7-31.3,30.3-64
	c6.3-19.3-8.2-41.4,4.8-46.2s48.9,22.1,48.9,22.1"/>
<path vector-effect="non-scaling-stroke" class="st1" d="M1216.6,1083.7c-12.8-12.2-28.2-43-29.5-57.8
	c-1.3-14.8-23.8-96.3-46.9-116.8s-71.9-57.1-72.5-76.4c-0.6-19.3,13.5-40.4,0-58.4s-32.1-42.4-21.8-63.6
	c10.3-21.2,18.6-28.9,14.1-57.1c-4.5-28.2-3.9-41.7,8.3-50.7c12.2-9,8.6-48.9,7.5-64.2c-1.1-15.4,4-42.2,11.7-44.8s36.2,0.6,42.2,25
	s20.1,37.9,29.7,50.7s-5.1,55.8,6.4,64.2s26.3,19.3,32.7,12.2c6.4-7.1,9-32.1,22.5-28.9s7.7,75.1,21.8,74.5
	c14.1-0.6,21.2-17.3,37.2-8.3s28.2,3.9,35.3-10.9c7.1-14.8,36.6-32.7,42.4-47.5s8.3-27,25.7-27s18.6,65.5,30.2,67.4s27,18,27.6,29.5
	c0.6,11.6,2.6,9.6,9,14.1s19.9,34,32.1,34s43-30.2,48.8-43.7s7.1-28.2,16.7-35.9s18.4-44.9,6.4-59.1c-12-14.1-17.3-31.2-12.2-43.2
	s16.7-35.7,34-47.9c17.3-12.2,28.2-19.3,35.9-25c7.7-5.8,47.7-29.5,57.2-43.7c9.5-14.1,12.7-38.5,30.1-56.5s35.2-20.7,41.1-25
	c22.5-16.7,32.7-48.8,45.6-48.8c14.1,0,30.8,16,37.9,49.4s7.1,14.8,26.3,19.9c19.3,5.1,21.2,21.2,15.4,38.5
	c-5.8,17.3-14.1,43-18,48.8s-12.2,6.4-12.8,10.9c-0.6,4.5,6.4,18.9,21.8,26.8s30.8,29.7,28.2,44.5c-2.6,14.8-16,33.4,25,50.1
	c41.1,16.7,54.4,23.2,46.2,53.3c-16.7,61-23.1,68-6.4,76.4c16.7,8.3,48.8,11.6,62.3,14.1c13.5,2.6,40.4,10.9,55.2,12.8
	c14.8,1.9,23.8,5.8,34,3.9c10.2-1.9,23.1-12.8,35.9-11.6c12.8,1.3,31.5,23.1,41.1,19.9s9.6-14.1,11.6-30.2c1.9-16,34-60.3,34-60.3
	s7.7-13.5,12.2-18s20.5-24.4,28.2-27.6c7.7-3.2,55.8-11.6,68-19.3c12.2-7.7,19.9-47.5,27.6-64.8s21.2-68.7,57.8-104.3
	s60.3-26.6,68-47.8c7.7-21.2-27.6-42.4-18-67.4s62.9-44.9,86-74.5c23.1-29.5,25.7-67.4,16-115.5c-9.6-48.1-15.8-96.3,5.3-109.1
	c21-12.8,34.3,0,34.3,0"/>
<path vector-effect="non-scaling-stroke" class="st1" d="M1255.7,1083.7c-1-11.6-12.5-27-24.1-36.6s-15.4,2.1-21.2-64
	c-5.8-66-42.4-104.5-64.5-118s-30.8-37.6-17.3-78s-12.5-54.9-22.1-67.4s-1-34.7,0-50.1c1-15.4-14.4-13.5-10.6-27
	c3.9-13.5,12.5-7.5,15.4-33.6s13.6-31.9,15.4-16.5c2.9,24.1,3.9,61.6,14.4,68.4c10.6,6.7,53,19.3,55.8,45.3
	c2.9,26,19.5,21.6,23.1,28.9c8.7,17.3-1,65.5,22.1,63.6s45.3-1.9,52-13.5s2.9-20.2,0-29.8s-11.8-35.6,3.7-24.1s29-20.2,39.6-33.7
	s21.2-27,24.1-15.4s4.8,48.1,0,69.3s-10.2,120.4,7.9,138.7s29.6,16.4,45,39.5s31.8,33.7,44.3,24.1s2.9-31.8-6.7-41.4
	c-9.6-9.6-22.1-39.4-23.1-65.9s3.9-84.3,20.2-75.6c16.4,8.7,41.4,34.7,62.6,21.2s36.6-64.5,54.9-79.9s38.5-64.3,18.3-102.9
	c-20.2-38.6,0-58,22.1-70.5s68.9-35.6,83.1-55.8c14.2-20.2,11.3-41.2,20-50s11.4-24.6,19.7-30.7c8.3-6,9.4-2.2,27.6-19.5
	s23-34.7,32.6-33.7s-7.5,42.9,5.9,53.2s49.2-2.2,46.2,11.3s-4.2,42.4-16.1,46.2c-11.9,3.9-18.6,1.9-20.6,12.5
	c-1.9,10.6,8.9,25.8,28.9,47.2c33.8,36,12.5,58.7,25,75.1c12.5,16.4,62.6,29.8,70.3,40.4c7.7,10.6-23.1,87.6-20.2,107.8
	s-0.4,21.2,21.5,17.3s33.4,5.8,53.6,11.6s82.8,11.6,97.3,19.3c14.4,7.7,25.1,6.4,37.6,1c38.3-16.7,61.6,35.6,86.7,23.1
	c25-12.5-3.9-30.8,13.5-68.4c17.3-37.6,27.2-61,44.3-75.1c41.7-34.6,83.5-12.5,109.1-26c25.7-13.5-1.3-43.1,42-84.6
	c43.3-41.5,19.3-46.5,46.2-67.1c27-20.6,79-45.1,91.5-91.6s-18.9-41.7-12.8-65.7s54.8-31.8,69.4-46.2"/>
<path vector-effect="non-scaling-stroke" class="st1" d="M1262.8,1083.7c-2.6-12.2-17.5-38.8-32.7-50.7
	c-15.2-11.9-4.5-44.9-14.1-85.4c-9.6-40.4-31.5-64.8-44.3-75.7s-35.9-17.3-34.7-44.3c1.3-27,12.2-41.1,13.5-59.1
	s-20.5-30.8-28.2-43.7c-7.7-12.8-12.8-35.3-9.6-46.9c3.2-11.6-4.5-35.9,3.2-37.9c7.7-1.9,13.5,39.2,21.8,41.1
	c8.3,1.9,20.5-3.9,35.3,18.6s33.4,45.6,32.1,61s15.4,52.6,41.7,52c26.3-0.6,42.4-6.4,51.4-16s12.2-21.2,9.6-31.5s-6.4-16.7,5.1-20.5
	c11.6-3.9,15.4-9.6,22.5-16.7c7.1-7.1,11.6-23.8,18-15.4c6.4,8.3-1.9,30.2-3.9,41.7c-1.9,11.6-5.8,68-2.6,85.4
	c3.2,17.3-10.3,35.3-3.9,54.6s21.2,19.9,36.6,32.7s53.9,51.4,54.6,60.3s-2.6,21.2,15.4,30.2c18,9,41.7,5.1,53.3-9.6
	c11.6-14.8,11.6-53.3,0-65.5s-42.4-31.8-46.2-59.9c-3.9-28.1-14.1-69.2-1.3-74.9c12.8-5.8,59.1,23.1,75.7,12.8
	c16.7-10.3,17.3-59.1,34-72.5c16.7-13.5,28.9-14.1,41.7-34.7c12.8-20.5-5.8-23.8-3.2-35.3c2.6-11.6,11.7-14.8,7.8-30.2
	s-22.5-30.8-20-47.5c2.6-16.7,5.9-42.3,20.9-44.9s26.8-12.2,37.6-20.6c10.8-8.3,21.1-5.1,35.2-18c14.1-12.8,30.7-30.8,32.1-52.3
	c1.3-21.5,4.9-34.3,18.2-42c13.3-7.7,22.9-37.9,35.8-37.2c12.8,0.6-6.4,34.7,11.6,38.5c18,3.9,37.9-10.3,39.8,4.5
	s-29.5,11.2-30.2,27.1c-0.6,15.9,1.4,40.3,21.9,59.6s30.2,50.7,27.9,72.5c-2.3,21.8,52.9,42.4,65.1,46.9s16,5.8,11.6,21.8
	c-4.5,16-20.5,97.6-33.4,106.6c-12.8,9-49.4,46.2-38.5,64.8s21.8,5.1,32.7,13.5c10.9,8.3,17.3-5.1,7.1-19.3s-1.9-27,8.3-29.5
	c10.3-2.6,14.8-18,28.2-17.3c13.5,0.6,43.7-3.2,59.7,9s20.5,17.3,39.8,14.8c19.3-2.6,39.8-7.7,50.1,1.3c10.3,9,38.5,19.3,56.5,16.7
	s33.4,16.5,54.6,29.8c21.2,13.3,53.9,34.4,70,27.4c16-7.1-19.9-57.1-21.2-82.2c-1.3-25,9-35.3,17.3-46.9c8.3-11.6,2.6-30.8,18-43
	s25.7-38.5,51.4-30.8c25.7,7.7,43.7,24.4,61.6,16c18-8.3,16.7-48.1,34.7-68.7c18-20.5,34-7.1,52.6-46.9
	c18.6-39.8-1.9-53.8,30.8-77.6c32.7-23.8,39.2-8.1,58.4-38.4c19.3-30.3,28.2-27.9,20.5-53.2c-7.7-25.3-19.7-60-1.3-67.7
	c18.2-7.6,32.5-24.4,32.5-24.4"/>
<path vector-effect="non-scaling-stroke" class="st1" d="M1280.1,1083.7c-12.2-6.4-21.2-27.6-23.8-37.2c-2.6-9.6-13.5-9-19.9-28.2
	c-6.4-19.3,1.3-49.4,2.6-66.1c1.3-16.7-4.5-40.4-18-58.4s-62.9-31.5-69.3-57.8s-1.3-48.8,10.3-52c11.6-3.2,9.6-18,3.9-24.4
	c-5.8-6.4-25.7-18.6-31.5-35.3s-14.8-28.9-5.8-31.5s10.9,9.6,26.3,19.3c15.4,9.6,30.2,15.4,34.7,35.3s7.7,37.2,12.9,48.8
	c5.1,11.6,20.5,31.5,37.2,29.5c16.7-1.9,37.2-4.5,48.8-7.1c11.6-2.6,27-16,27-30.8s1.9-32.1,9.6-32.1s10.3-12.8,14.1-10.9
	c3.9,1.9,1.3,21.2-3.9,36.6c-5.2,15.4-6.4,41.1-3.2,54.6s-3.9,36.9,0,52.1c3.9,15.3,5.8,42.9,22.5,49.3s16.7-3.9,30.8,13.5
	c14.1,17.3,29.5,30.2,35.3,39.2s3.9,20.5,13.5,26.3s19.9,16.7,46.9,16c27-0.6,70.6-19.9,70-35.3s-21.2-7.7-24.4-19.9
	c-3.2-12.2-4.5-37.9-19.3-48.1c-14.8-10.2-30.2-18-34.7-35.9c-4.5-18-21.2-62.9-1.9-68s42.4,19.9,66.1,6.4
	c23.8-13.5,23.1-52.6,34-66.8c10.9-14.1,29.5-5.1,42.4-16.7s7.1-51.4,13.5-61s0.6-35.3-8.3-48.1c-9-12.8-19.3-40.4-1.3-53.9
	s3.9,7.8,43.7-29.5c39.8-37.3,39.2-41.3,53.3-54.4c14.1-13.1,21.2-52.2,27-62.5s39.8-7.7,39.2,32.1c-0.6,39.8,25.2,57.7,34.1,68
	s10.9,25.1,11.8,44.3c0.9,19.3,4,52.6,26.2,59.1c22.2,6.4,41.5-1.9,47.6,7.7c6.1,9.6,4.8,23.8-7.4,43c-12.2,19.3-19.9,53.9-27,65.8
	s-37.8,24.1-39.5,47.2c-1.6,23.1-5.5,50.7,18.9,60.3s46.9,18.6,58.4-1.3s12.2-32.7,3.8-47.5c-8.3-14.8,19.9-9.6,32.1-17.3
	s25-8.3,33.4,5.1s41.1,3.2,54.6,7.7s9.6,41.7,27,38.5c17.4-3.2-0.6-32.1,25.7-27c26.3,5.1,57.8,2.6,71.9,18.6
	c14.1,16,34,39.8,47.5,44s22.5,24.7,22.5,40.8s21.8,10.3,22.5,1.9c0.7-8.4,18-20.5,28.9-27c10.9-6.4,9.6-27.6,0-44.9
	c-9.6-17.3-31.5-57.1-27.6-70c3.9-12.8,1.9-30.8,23.8-29.2c21.9,1.6,36.6-9.3,30.8-31.8c-5.8-22.5,3.9-45.6,30.2-25
	c26.3,20.5,52.6,57.1,71.9,39.2c19.3-18,0-70,19.9-91.8s58.4-34,65.5-58.4s1.3-60.3,19.9-73.8c18.6-13.5,52.3-29.5,70.9-57.1
	c18.6-27.6,14.6-59.4,1.6-98.3c-3.7-11.1,28.6-23.1,28.6-23.1"/>
<path vector-effect="non-scaling-stroke" class="st1" d="M1296.2,1083.7c-8.2-18.3-42.4-50.1-44.3-71.3c-1.9-21.2-0.5-19.3,0-67.9
	s-24.6-64.5-36.6-72.2s-40.9-21.2-42.4-42.8c-1.4-21.7-4.8-33.7,8.2-29.8s20.2,40,42.8,43.3c22.6,3.4,40.4-0.5,49.5-4.3
	s33.7-23.1,40-16.9c6.3,6.2,11.1,8.7,7.7,22.6c-3.4,14-4.3,32.7-1,43.8c3.4,11.1,3.9,53,29.4,59.2c25.5,6.3,37.1,19.4,45.7,35.7
	c8.7,16.3,12.5,36.5,48.1,51s43.8,7.7,60.2,19.3s31.3-14,35.1-19.3c3.9-5.3,12-14.9,38-15.4s27.9-8.2,27.9-17.3s-8.2-15.7-32.3-18.2
	c-24.1-2.5-41.4-8.3-41.4-28.5s-10.6-33.2-22.6-39s-35.1-41.4-22.6-54.4s35.1,4.8,57.8-11.6s27.4-61.6,43.8-67.4
	c16.4-5.8,40.9,21.7,49.1-5.8c8.2-27.4,0.2-42.8,6.4-59.2c6.1-16.4,11.3-30.8,7.1-44.8c-4.3-14-25-29.4-20.6-48.1
	c4.3-18.8,22.1-9.6,32.3-20.7c10.1-11.1,32.7-54.9,45.3-70.3c12.5-15.4,25.5-21.4,30.8-32.3c5.3-11,9.4-38.4,19.8-34.1
	c10.5,4.3,4.7,48.5,17.5,58.9s26.2,12.1,35.9,35.1c9.6,23,4,46.1,15.3,69.7s20.5,24.1,34.4,27.4c13.9,3.4,23.1,3.4,19.7,17.3
	c-3.4,14-19.7,13.5-22.6,29.8c-2.9,16.4,1.9,36.6-12.5,45.7s-38.5,27-38.5,51.5c0,24.6,17.8,27.4,14,47.2
	c-3.9,19.7,2.6,21.2,21.7,25.5c19.2,4.3,22.5,23.1,38.7,22.6c16.1-0.5,27.2-8.7,32-18.8s9.1-40.4,16.9-45.7
	c7.7-5.3,15.9,4.3,28.9-0.5s42.8-19.3,55.4-4.8c12.5,14.4,3.9,26,0,40s-5.3,35.6,11.1,37.6c16.4,1.9,38,3.4,38-15.9
	s18.8,1.9,27.9-5.3s-4.8-36.9,3.9-38c8.7-1,10.1,22.6,24.1,20.6c14-1.9,44.3-1,55.4,16.4c11.1,17.4,36.6,26,28.9,53.4
	s4.3,32.3,16.9,36.6c12.6,4.3,20.7,25.5,17.3,46.2c-3.4,20.7-4.8,55.8,8.7,64"/>
<path vector-effect="non-scaling-stroke" class="st1" d="M1312.1,1083.7c-7.2-13.5-40.4-39.5-44.8-63.1c-4.3-23.6-1-40.4,0-59.2
	s-2.4-53-12-66.4c-9.6-13.5-10.6-21.2-24.6-30.3s6.7-10.6,25-7.7c18.3,2.9,37.6-23.1,46.2-18.8c8.7,4.3,8.7,11.1,2.4,27.4
	s9.6,51.5,18.8,64c9.2,12.5,9.6,21.7,23.1,25.5c13.5,3.9,33.7,14,46.7,43.8c13,29.8,39.5,45.3,72.7,51s61.1,36.1,61.1,36.1"/>
<path vector-effect="non-scaling-stroke" class="st1" d="M1322.2,1083.7c2.4-8.7-1.9-26-17.8-33.7s-32.3-25.5-30.9-56.8
	c1.4-31.3,6.2-27.9,0-51s-1.9-47.7-13.9-63.1s-2.4-16.4,9.6-14s19.7-10.1,24.1-4.3c4.3,5.8-1.9,14.9,2.9,27.4s8.7,36.6,19.3,51
	c10.6,14.4,13.5,24.5,36.1,32.2s16.9,31.8,32.3,47.7c15.4,15.9,19.4,34.3,71.7,42.4c25.5,4.8,45.7,22.1,45.7,22.1"/>
<path vector-effect="non-scaling-stroke" class="st1" d="M1356.5,1083.7c-0.6-14.8-7.7-30.8-27.6-47.5
	c-19.9-16.7-29.5-21.2-28.9-37.9s-3.9-21.2,5.8-22.5c9.7-1.3,18,13.5,31.5,25c13.5,11.6,21.8,10.2,26.3,28.8
	c4.5,18.7,39.8,50.8,57.1,54"/>
<path vector-effect="non-scaling-stroke" class="st1" d="M1364.9,1083.7c0-8.3-6.4-35.6-20.9-44.3c-14.4-8.7-32.1-24.1-33.4-32.1
	s2.6-14.4,12.2-7.7s22.8,16,27.9,19.9s7.4,16,14.1,25.7c6.7,9.6,24.1,34.7,42.7,38.5"/>
<path vector-effect="non-scaling-stroke" class="st1" d="M1376.5,1083.7c0,0-11.3-16.7-5.2-15.7c6.1,1,18,15.7,18,15.7"/>
<path vector-effect="non-scaling-stroke" class="st1" d="M1564.5,1083.7c0-11.9-26-36.9-4.7-52c21.4-15.1,33.9,5.5,48.3-8.3
	c14.4-13.8,12.2-39.2-2.9-42.7s-47.7-4.5-53.9-11.6s-7.8-33.7-17.1-44.6s-31.8-20.9-33.1-32.7c-1.3-11.9,4.5-20.5,19.9-24.7
	s26.2,0.6,38.3-12.8c12.1-13.5,11.4-18.9,15-24.4s9.9-2.9,18.6-17.3s11.2-13.5,18.6-9.3s26.6,39.8,36.6,29.8
	c9.9-9.9,11.9-57.5,8.3-68.7c-3.5-11.2-7.1-38.5,3.2-58.4c10.3-19.9,0.6-36.3-1.9-44.6s-11.9-22.8,9.3-22.8s25.7,4.8,39.6-4.8
	c14-9.6,11-47.2,10.4-56.5s14.5-29.2,21.9-42.7s13.2-37.2,20.9-8.7c7.7,28.6,28.8,13.2,36,33.7s10.8,28.9,16.6,54.6
	s14.4,43,32.4,47.8s11.1,20.2-2.8,32.1s-4.9,28.6-9.4,39.2s-10.9,12.5-26.3,20.5s-29.8,29.5-21.2,56.5c8.7,27,22.8,32.7,18,41.7
	s-17.3,27-2.9,30.2s54.4-1.3,51.9,23.8s-23,53-3.4,57.5s22.8-32.1,29.2-42c6.4-9.9,9-16.4,24.4-15.4s22.8-24.7,22.8-33.7
	s6.1-27.6,21.2-22.5s37.2-17.8,48.8-3.3c11.6,14.5-10.6,24.8-4.8,42.5s35.6,27,29.5,51.4s-27.6,13.5-34.7,27.3s4.8,35.9-16,54.9
	c-20.9,18.9,33.4,25.4,39.8,34.3c6.4,9,32.4,18.9,34.3,27"/>
<path vector-effect="non-scaling-stroke" class="st1" d="M1589.5,1083.7c0-8.3-22.5-26.6-14.8-33.1c7.7-6.4,40.8,7.4,51.7-4.5
	s-2.2-45.9,2.9-53.6c5.1-7.7,0-21.6-9.6-21.1s-14.4,0.8-23.8-9.6c-9.3-10.4-25.4-5.9-33.1-5.6s-17-8-14.4-21.2s-9.3-24.1-16-30.8
	s-6.7-21.5,2.6-24.7c9.3-3.2,20.9-1.6,36.9-16.7s15.7-37.6,32.1-36.9c16.4,0.7,29.8,28.9,43,25.7s24.6-43.3,22.2-60.3
	c-2.3-17-6.2-44-5.9-49.7c0.3-5.8,2.6-32.7,9.9-47.5c7.4-14.8-0.6-19.9,4.5-26.3c5.1-6.4,24.3,6.4,39.4-17.7
	c15.1-24.1,14.2-6.7,22.5-38.5s19.6-59.7,28.9-59.7s22.3,7.4,27.4,32.1c5,24.7,21.4,72.2,36.8,79s10.9,20.2,0,24.1
	c-10.9,3.9-13.8,2.9-16,9.9s10.3,13.5,6.7,25c-3.5,11.6-12.6,18.6-27.5,25.7s-28.5,34.7-21,61.6s20.9,30.5,14.2,43
	c-6.7,12.5-25.4,15.4-21.5,27s3.9,18,25.4,15.4s40.4-6.1,38.8,10.6s-20.5,72.5,5.8,72.5c14.8,0,16-13.2,39.5-17
	c23.4-3.9,36.9-12.8,42-24.1s4.8-44,18.6-55.8c13.8-11.9,33.1-22.5,36.9-15.7c3.9,6.7-12.2,24.4-7.4,35.3c4.8,10.9,32.7,9.6,29.8,26
	c-2.9,16.4-5.1,19.9-21.2,18.6s-20.5,11.6-19.3,25s10.3,30.8-9.6,50.7s-45.9,35.3-55.8,62.9"/>
<path vector-effect="non-scaling-stroke" class="st1" d="M1860.5,1085c5.4-5.8,12.1-3.9,19.2-8.7c7.1-4.8,4.8-17,15.1-24.7
	c10.3-7.7,34.3-32.4,40.1-44s13.5-28.6,12.2-44s6.1-24.1,4.2-28.6s-9.3,2.9-10.6-1.6c-1.3-4.5-5.1-9.3-13.2,8.3
	s-10.9,22.5-27.6,27.3s-20.9,1.6-49.4,14.4c-28.6,12.8-32.1-6.1-32.1-11.9s4.3-46.2-4.1-54.6c-8.4-8.3-25.1,3.5-36-6.7
	c-10.9-10.3-27.4-35.3-15.8-45.6s18-11.2,16.4-23.1s-14.1-26.3-11.6-48.1c2.6-21.8,9.6-51.4,19.3-53.6c9.6-2.2,12.2,2.2,17-3.2
	c4.8-5.5,13.2-11.2,8-20.5s-16-30.5-6.7-31.5s22.5,1.6,22.8-10.3c0.3-11.9-18.6-27.6-24.1-49.7c-5.5-22.1-16.5-50.1-28.6-51.4
	c-12.1-1.3-11.9,6.7-17.5,21.2c-5.6,14.4-5.9,44.6-18.4,52.3s-23.4,35.9-34.3,33.1c-10.9-2.9-14.8,1.3-18,7.1s-12.8,19.6-15.1,27.3
	c-2.2,7.7-2.7,25-2.5,34s3.1,27.9,5.4,40.1c2.2,12.2,6.1,31.1-3.9,46.5s-19.3,35-36.6,33.1s-25.7-14.4-41.4-5.5
	c-15.7,9-33.7,19.6-41.4,25s-4.5,14.8-1.6,20.5c2.9,5.8,14.4,17.7,13.2,27.6c-1.3,9.9,3.2,7.1,21.5,6.4c18.3-0.6,27.6,1.6,37.2,11.9
	c9.6,10.3,16.4,16,26.6,17.4s11.4,17.9,1.7,38.1c-9.7,20.2-2.8,27.3,0,37.6s-22.9,17.3-21,27c1.9,9.6,15.1,9.6,15.1,9.6"/>
<path vector-effect="non-scaling-stroke" class="st1" d="M1691.9,1083.7c2.4-19.7,6.3-22.6,0-33.7s-5.2-33.7,3.4-40.9
	s17.3-16.9,8.2-28.9c-9.1-12-28.9-19.7-31.8-27.4s-17.8-5.3-26-14.4c-8.2-9.1-38.5-29.8-33.2-35.6s25-0.5,34.7-7.2
	c9.6-6.7,27.4-13,33.7-28.9s8.7-26,14.9-31.8c6.3-5.8,10.1-28.4,2.9-42.4s-7.2-24.1-3.9-29.4c3.4-5.3,0.5-18.3,10.1-20.7
	s14-3.9,20.7-9.1c6.7-5.3,8.7,1.4,14.9-10.6c6.3-12,0.5-23.1,10.6-23.1s10.1-19.3,17.8-17.8c7.7,1.4,1.1,32.7-6.5,40.9
	s-12.8,23.1-24.4,30.8s-17.8,14-18.3,29.4s20.5,39.5,15.6,54.9c-5,15.4-11.2,42.4-18.2,48.2s-8.5,20.2,5,26s30.9,17.3,40.2,30.3
	s15.1,15.8,14.6,29.3s-4.8,21.7,5.3,32.3c10.1,10.6,10.6,19.7,35.1,20.7c24.6,1,42.4-17.8,46.7-8.2c4.3,9.6-10.9,24.1-22.1,30.8
	c-11.1,6.7-43.4,21.2-41.5,36.6"/>
<path vector-effect="non-scaling-stroke" class="st1" d="M1701.6,1083.7c0,0,7.7-13.5,5.3-28.4s-9.1-18.8-5.3-29.8
	c3.9-11.1,21.7-26.5,20.7-38s-15.9-22.1-27.9-31.3c-12-9.1-6.7-13-18.3-18.8c-11.6-5.8-40.9-8.7-35.1-22.1s23.1-10.6,34.7-24.1
	s16.4-43.3,25.5-48.1s18.9-16.9,21.2-8.2c2.4,8.7,2.9,11.6-5.1,27.4c-8,15.9-19.5,24.6-15.7,38s12.3,14.9,28.3,23.1
	s36.7,24.6,35.7,40.4s-0.7,24.1,6.7,38.5s24.6,28.9,35.7,29.4s20.4,1.2,18.2,8.5c-2.3,7.4-25.7,17.5-30.1,29s-2.5,14.4-2.5,14.4"/>
<path vector-effect="non-scaling-stroke" class="st1" d="M1711.7,1083.7c9.6-9.6,8.3-21.2,5.6-30.8c-2.7-9.6-3.2-35.6,6-41.4
	c9.1-5.8,17.7-19.7,10.1-33.2s-32.7-31.8-40.4-44.8s-2.4-18.8,14-10.1s31.8,13.5,34.7,24.1c2.9,10.6,15.9,16.7,14,28.3
	s0.8,34.7,16.8,44.9c16,10.2,31.4,15.9,29,23.1s-9.6,8.2-13,14.9c-3.4,6.7-4.3,26.3-4.3,26.3"/>
<path vector-effect="non-scaling-stroke" class="st1" d="M1729.9,1083.7c0,0,5.7-11.1,0-24.6s-9.2-29.4,0-36.1
	c9.2-6.7,6.8-20.2,13.6-20.9c6.7-0.7,10.2,17.5,19.1,24.8c8.9,7.2,16.1,10.4,19,16c2.9,5.7-5.3,9.5-6.5,19.1s0,21.7,0,21.7"/>
<path vector-effect="non-scaling-stroke" class="st1" d="M1745.4,1083.7c2.8-10.6,4.9-12,0-25s-5.7-32.8,0-28.9s13.5,16.4,17.1,22.2
	s0,31.8,0,31.8"/>
<path vector-effect="non-scaling-stroke" class="st1" d="M1903.8,1085c0,0,4.8-16.7,12.5-21s6.3,19.7,6.3,19.7"/>
<path vector-effect="non-scaling-stroke" class="st1" d="M1939.9,1083.7c0,0-13-26.5,0-27.2s9.1,12.8,23.1,10.4s47.2,2.4,62.6,16.9"
	/>
<path vector-effect="non-scaling-stroke" class="st1" d="M1954.3,1083.7c0,0,9.6-10.3,22.1-9.5s30.8,9.5,30.8,9.5"/>
<path vector-effect="non-scaling-stroke" class="st1" d="M2045.8,1020.2c-10.6,5.8-15.4,17.8,0,20.7c15.4,2.9,9.1,14.9,17.8,13
	c8.7-1.9,6.3-20.2-4.8-29.4C2047.7,1015.4,2045.8,1020.2,2045.8,1020.2z"/>
<path vector-effect="non-scaling-stroke" class="st1" d="M2036,997.5c-10.7,1.8-18.1,8.7-14.7,25c3.4,16.3-0.4,20.7,14.7,26.5
	s19.9,18.3,29.6,16.9s14-21.3,8.7-36.6C2068.9,1013.9,2061.3,993.2,2036,997.5z"/>
<path vector-effect="non-scaling-stroke" class="st1" d="M2081.4,1083.7c11.1-12.5,16.4-45.3,8.2-68.8c-8.2-23.6-13-18.2-18.3-39.2
	c-5.3-21-28.8-21.9-35.3-13.8c-6.5,8.2-4.6,25.2-15.5,20.2c-13.8-6.3-29.5-15.1-28.5,14.8c1,30-9,38.4,14.3,46s54.6,40.8,54.6,40.8"
	/>
<path vector-effect="non-scaling-stroke" class="st1" d="M2103.6,1083.7c0-22.1,16.9-31.9,8.7-64.8c-8.2-32.9-10.4-49.8-35.7-63.7
	c-25.3-13.9-27.8-25-21.1-31.3c6.7-6.3,25-10.1,27.9-18.8s16.9-23.7,33.7-22.4c16.8,1.3,31.8-12.9,45.3,4.3s14.9,48,8.7,76.9
	c-6.2,28.9-10.1,41.9,10.1,41.9s24-16.2,34.7,17.3c3.4,10.6,14.4,46.9,11.1,61.9"/>
<path vector-effect="non-scaling-stroke" class="st1" d="M2121.9,1083.7c0.5-16.4,11.6-70.8,2.4-91.5c-9.1-20.7-11.6-40.9-20.7-50.1
	c-9.1-9.1-5.8-34.2,6.7-39.5s34.7-11.1,43.8,0s10.6,24.6,6.3,43.8c-4.3,19.3-7.2,59.7,0,62.1c7.2,2.4,8.7,23.1,14.9,31.8
	c6.3,8.7,10.1-0.6,17.3-3.9c7.2-3.3,11.6-2.6,15.4,6.4c3.9,9,10.1,27.3,9.1,40.8"/>
<path vector-effect="non-scaling-stroke" class="st1" d="M2131.5,1083.7c1.4-12,6.7-40.1,5.8-54.5c-0.9-14.4-2.4-45.2-10.1-63.5
	s-1-39,7.2-30.3c8.2,8.7,13.5,9.9,14,22.3s-2.4,58.1,6.9,62.7c12.1,6,8,45.7,16.7,45.6c8.7-0.1,13.5-13.7,22.6-11.9
	c9.1,1.7,13.5,30.9,13.5,30.9"/>
<path vector-effect="non-scaling-stroke" class="st1" d="M2143.5,1083.7c1.4-14,0.5-28.9,7.2-27.2c6.7,1.7,5.3,16.4,17.3,17.7
	c12,1.3,26.5-3.3,29.8,10.8"/>
<path vector-effect="non-scaling-stroke" class="st1" d="M2267.3,1083.7c-11.6-10.6-19.7-16.9-15.9-29.6c3.8-12.7-4.8-36.8,7.5-41.1
	c12.3-4.3,30.6,1,39.2,12.5c8.7,11.6,23.6,19.7,23.6,28.6s2.9,24.8,0,29.6"/>
<path vector-effect="non-scaling-stroke" class="st1" d="M2280.3,1083.7c-10.1-9.1-8.7-14.9-11.1-23.6s-8.2-22.6,0-27
	c8.2-4.3,18.8,2.4,27.9,8.7c9.1,6.3,16.9,17.1,15.4,24.2s-3.4,19-3.4,19"/>
<path vector-effect="non-scaling-stroke" class="st1" d="M2287.4,1076.8c-4.8-5.4-6.3-14.3-4.2-18.4c2-4.1-2.4-7.9,1.9-8.3
	s8.4,1.6,12.1,5.5c3.7,3.9,4.5,10.6,3.7,13.6C2300,1072.2,2292.5,1082.5,2287.4,1076.8z"/>
<path vector-effect="non-scaling-stroke" class="st1" d="M2340.9,1085c0-22.5,0.6-34.6-18-48.5c-18.6-13.9-17.3-27.9-36.3-37.5
	c-18.9-9.6-28.6-11.1-26.6-34.7c1.9-23.6,34.2-30.3,37.1-42.8c2.9-12.5,12.8-11.6,3.3-45.3s-39.1-83.8-18.1-85.7s35.5,20.4,45.1,7.6
	c9.6-12.8-16.4-60,4.8-56.7c21.2,3.4,38,40.5,56.3,33.7c18.3-6.8,39.5,8.7,53.4,0s3.9-29.9-5.8-50.6c-9.6-20.7-6.3-53.4,15.9-61.1
	c22.1-7.7,50.1-13,64-48.1c14-35.1,5.8-64.5,17.8-80.4s24.6-6.3,45.7-15.9c21.2-9.6,29.6-54.4,29.6-54.4"/>
<path vector-effect="non-scaling-stroke" class="st1" d="M2353.4,1083.7c-0.5-22.1-7.2-43.6-19.3-53.8c-12-10.2-15.5-12.8-21.5-27.4
	s-32.7-15.5-30.4-32.9c2.3-17.3,27.8-3.4,35.5-24.1c7.7-20.7,16.1-15.9,5.1-45.3c-10.9-29.4-26-64.5-10.3-69.8
	c15.7-5.3,26.3,16.9,36.4,7.7c10.1-9.1-10.1-47.2,4.3-53c14.4-5.8,37.6,18.5,51.5,12.8s43.3,18,59.7,5s22.1-51.5,5.8-79
	c-16.4-27.4,15.9-17.7,26-27.1c10.1-9.5-7.2-29.2,16.9-37.9s43.8-8.2,54.9-40.9c11.1-32.7-15.4-49.9,11.1-57.2s30.1-16,30.1-16"/>
<path vector-effect="non-scaling-stroke" class="st1" d="M2373,1083.7c-6.1-37.6-30.2-62.8-38.8-81.2c-8.7-18.4-3.9-32.9,9.6-56
	s-30.2-86.1-23.6-94.8c9.1-12,26.6,3.5,34.2-5.8c15.4-18.8-0.5-44.8,9.1-48.6c9.6-3.9,25,16.9,40,14.4s42.4,19.7,60.2,16.9
	c17.8-2.9,36.1-14.9,31.8-41.9c-4.3-27,7.2-19.7,3.9-36.6c-3.4-16.9-18.4-24.1-8.5-29.4c9.9-5.3,16.2,5.3,22.5-9.6
	c6.3-14.9,1.9-34.7,19.7-36.6c17.8-1.9,52-9.6,75.6-56.3"/>
<path vector-effect="non-scaling-stroke" class="st1" d="M2389.5,1085c-4.8-22-4.3-26.9-13-48.5c-8.7-21.6-25.5-15.3-21.2-54.8
	c4.3-39.5,19.7-29.4,12.5-58.8c-7.2-29.4-11.6-26-6.3-32.7c5.3-6.7,17.8,2.4,17.8-19.7s-8.2-59.7,6.3-56.1
	c14.4,3.6,36.6,5.5,44.8,13.2c8.2,7.7,19,30.8,33.6,33.7c14.5,2.9,18.9-9.1,30-22.1s18.8-16.4,17.3-35.6c-1.4-19.3-5.3-64,12-84.3
	c17.3-20.2,23.6-11.4,36.1-22.3c12.5-10.9,35.6-28.7,49.1-29.7"/>
<path vector-effect="non-scaling-stroke" class="st1" d="M2418.4,1083.7c-7.7-16.4-10.1-31.6-2.4-51.9c7.7-20.3-3.4-25.3-13-29.3
	s-16.4-8.3-6.7-25.2c9.6-16.9,8.7-28.6,5.8-43.9s-11.6-18.7-3.9-29.3s19.7-17.3,18.3-32.3s10.6-14.4,15.9,0s25.8,68.1,49.2,61.5
	c23.5-6.6,10-32.3,25.9-46.4c15.9-14.1,39.5-30,49.1-60.3s-10.1-44.3-2.9-69.3s24.6-29.8,41.9-35.1s13.8-11.1,13.8-11.1"/>
<path vector-effect="non-scaling-stroke" class="st1" d="M2434.6,1083.7c-8.9-18.3-12.8-31.8-4.1-61.1c8.7-29.3-9.6-17.2-7.7-40.9
	c1.9-23.6,14-7.3,3.9-37.6s-15.7-39.5-4-40.4c11.7-0.9,13.1-3.4,19.4,17.8s5.3,19.7,14.9,29.8s25.3,44.2,24.7,60.1
	s32.6,21.2,39.3,72.3"/>
<path vector-effect="non-scaling-stroke" class="st1" d="M2447.8,1083.7c-10.1-18.8-11.1-39.8-7.2-51.9c3.9-12.1,1.8-23.7,2.6-35.2
	c0.8-11.6-5-34.7,4.7-32.3c9.6,2.4,18.8,1.8,20.7,29.1s3.6,29.4,13.1,36.5c9.5,7.1,29.2,31.8,29.7,55.1"/>
<path vector-effect="non-scaling-stroke" class="st1" d="M2461.3,1083.7c-10.6-23.6-12-30.3-8.7-40.9c3.4-10.6-3.1-27.4,3.5-25.5
	s15,21.7,25.5,27.4c10.5,5.8,20.1,20.7,21.5,39"/>
<path vector-effect="non-scaling-stroke" class="st1" d="M2474.9,1083.7c-6.9-19.7-14.1-27.9-6.4-29.4c7.7-1.4,19.1,13.6,22.3,30.7"
	/>
<path vector-effect="non-scaling-stroke" class="st1" d="M2495.9,956.1c-9.1,10.5-3.4,28.8,2.9,37.3s1.9,21.6,4.3,31.2
	c2.4,9.6,13,29.3,23.6,37s22.6,18.3,31.8,11.6c9.1-6.7,2.9-12.2,14.9-18.9c12-6.6,11.1-13.7,5.3-22.5c-5.8-8.7-5.3-20.5-20.2-29.3
	s-25.5-0.6-33.2-17.5C2517.6,968.2,2501.5,949.7,2495.9,956.1z"/>
<path vector-effect="non-scaling-stroke" class="st1" d="M2571.5,1083.7c7.2-14,12.5-28.1,19.3-33.3c6.7-5.2,9.6-10.9,4.3-18.6
	c-5.3-7.8-16.9-14.7-25.5-29.3c-8.7-14.6-17.3-17.5-25.5-24.2c-8.2-6.7-24.1-11.3-25-44.9c-1-33.6-4.9-37.9,18-55s20-48.9,34.5-57.5
	c14.4-8.7,16-17.8,11.4-36.1s-6.5-43.3,12.2-46.2c18.8-2.9,14.5-6.3,14.5-6.3"/>
<path vector-effect="non-scaling-stroke" class="st1" d="M2580.2,1083.7c6.3-13,19.3-32.3,28.4-36.1"/>
<path vector-effect="non-scaling-stroke" class="st1" d="M2608.6,1031.8c-5.8-9.2-21.1-13.3-25.7-29.3c-4.6-16-11.8-19.9-26.3-31
	s-28.4-27-27-52.5s14.4-24.1,24.1-35.1s12-40.9,22.1-48.6c10.2-7.7,23.1-4.8,25-20.9c1.9-16.1-10.1-42.6,0-55.1s8.8-9.6,8.8-9.6"/>
<path vector-effect="non-scaling-stroke" class="st1" d="M2594.4,1083.7c7.9-11.6,14.2-18.1,14.2-18.1"/>
<path vector-effect="non-scaling-stroke" class="st1" d="M2610.1,1002.5c-11.1-8.3-4.4-23.7-18.3-31.4c-14-7.7-33.2-7.2-39.5-32.3
	c-6.3-25-6.7-31.1,6.3-35.7c13-4.7,19.8-31.7,24.4-44.2c4.5-12.5,13.9-22.6,26.8-21.7"/>
<path vector-effect="non-scaling-stroke" class="st1" d="M2609.7,975.9c-3.9-14-8.8-15.9-18.9-18.3c-10.1-2.4-23.9-12.5-24.2-28.4
	c-0.3-15.9,9.9-9.4,16.3-26.1c6.5-16.7,0.7-33.6,11.5-37.9c10.8-4.3,15.7-3.4,15.7-3.4"/>
<path vector-effect="non-scaling-stroke" class="st1" d="M2608.6,942.2c-13,1.9-28.3,2.7-25.7-8.8c2.6-11.4,21.4-16.7,26.5-40.8"/>
</svg>
